<?xml version="1.0" encoding="UTF-8" standalone="no"?>
<!-- Created with Inkscape (http://www.inkscape.org/) -->

<svg
   version="1.1"
   id="svg1"
   width="916.16492"
   height="464.33817"
   viewBox="0 0 916.16492 464.33817"
   xmlns="http://www.w3.org/2000/svg"
   xmlns:svg="http://www.w3.org/2000/svg">
  <defs
     id="defs1" />
  <g
     id="g1"
     transform="translate(-307.886,-136.18982)">
    <path
       style="fill:#000000"
       d="m 716.386,600.15 c -5.04112,-0.80163 -9.92013,-3.34772 -11.9393,-6.23048 -1.96059,-2.79914 -1.95471,-3.41804 0.0398,-4.18338 1.01916,-0.39109 2.32243,0.30371 3.58829,1.91299 3.14343,3.99622 7.4803,5.71373 14.32794,5.67422 10.95905,-0.0632 17.38545,-4.7169 14.68829,-10.63653 -1.2901,-2.83146 -4.64593,-3.91216 -17.20497,-5.5406 -10.51,-1.36276 -13.38407,-3.16968 -13.79847,-8.67505 l -0.29846,-3.9652 2.63108,-2.63108 c 5.11498,-5.11498 18.13503,-5.98864 26.4012,-1.77156 4.49907,2.29525 5.71994,3.77769 4.28933,5.2083 -0.66807,0.66807 -2.33266,0.11983 -5.00431,-1.64818 -10.25475,-6.78628 -28.7255,-1.94505 -24.27887,6.36355 1.07897,2.01608 3.85931,2.77529 18.8698,5.1527 9.06855,1.43631 12.52203,3.97898 12.52203,9.21951 0,4.52759 -2.25612,7.99805 -6.51255,10.01785 -3.85378,1.82874 -12.54719,2.65104 -18.32078,1.73294 z m -123.5,-19.10155 v -19.08786 l 15.75,0.34114 c 16.77543,0.36335 19.07948,0.97015 21.17884,5.57774 1.54342,3.38744 1.31879,7.45829 -0.55953,10.13997 -2.79634,3.99233 -7.26585,5.11687 -20.33719,5.11687 H 596.886 v 8.5 8.5 h -2 -2 z m 31.89824,-3.31713 c 3.06981,-2.7824 2.81094,-7.89201 -0.5331,-10.52243 l -2.63486,-2.07258 H 609.25114 596.886 v 7.57947 7.57947 l 12.89824,-0.32947 12.89824,-0.32947 z m 26.22725,8.15499 c 3.84097,-7.8375 7.94835,-16.3875 9.12751,-19 1.55267,-3.44003 2.71318,-4.75 4.20802,-4.75 h 2.06408 l 9.23745,18.50697 c 5.0806,10.17884 9.23745,18.72884 9.23745,19 0,0.27117 -0.66742,0.49303 -1.48315,0.49303 -0.81574,0 -2.62332,-2.25 -4.01685,-5 l -2.53369,-5 h -12.31222 -12.31222 l -2.34187,5 c -1.50629,3.21599 -2.96917,5 -4.09998,5 h -1.7581 z m 23.87451,0.73183 c 0,-0.28499 -2.28166,-5.06491 -5.07036,-10.62205 l -5.07037,-10.10388 -1.24208,1.87205 c -0.68315,1.02963 -3.10574,5.80955 -5.38355,10.62205 l -4.14148,8.75 h 10.45392 c 5.74966,0 10.45392,-0.23318 10.45392,-0.51817 z m 101,-3.98183 v -17.5 h -8.5 -8.5 v -1.5 -1.5 h 18.5 18.5 v 1.45956 c 0,1.13799 -1.81759,1.52354 -8.25,1.75 l -8.25,0.29044 v 17.25038 17.25037 l -1.75,-3.7e-4 -1.75,-3.8e-4 z m 40.92121,16.75 c -0.11106,-1.05725 -0.12182,-33.37552 -0.0118,-35.5 l 0.0906,-1.75 h 17.5 17.49998 v 1.5 1.5 h -15.99998 -16 v 7.07679 7.0768 l 15.00126,-0.3268 c 11.50911,-0.25072 15.00092,-0.0358 15.00002,0.92321 -7e-4,0.6875 -0.5638,1.26462 -1.2513,1.28249 -0.68748,0.0179 -7.43748,0.0431 -14.99998,0.056 l -13.75,0.0236 v 7.94397 7.94396 h 17 16.99998 v 1.5 1.5 h -18.49998 c -10.175,0 -18.53545,-0.3375 -18.57879,-0.75 z m 62.07877,-18.25 v -19 h 2.0595 2.0595 l -0.1944,17.25 -0.1944,17.25 13.6349,0.27822 13.6349,0.27822 v 1.47178 1.47178 h -15.5 -15.5 z M 437.22356,450.07139 c -17.3625,-1.7319 -25.4645,-12.48103 -24.04203,-31.89719 0.30373,-4.14584 4.18649,-24.22089 8.62836,-44.61122 4.44186,-20.39033 8.07611,-38.92069 8.07611,-41.17857 0,-7.79078 -4.66605,-9.35148 -10.95951,-3.66572 -9.62021,8.69128 -21.89828,33.88502 -29.67525,60.89149 -2.73283,9.49011 -11.36524,51.75826 -11.36524,55.64934 0,0.48322 -13.69076,0.87679 -30.5,0.87679 -16.775,0 -30.49822,-0.1125 -30.49604,-0.25 0.002,-0.1375 1.37784,-7.45 3.05702,-16.25 1.67919,-8.8 3.67005,-19.375 4.42413,-23.5 1.89899,-10.38781 10.8401,-58.24725 14.38516,-77 1.61158,-8.525 2.77915,-15.6584 2.59461,-15.852 -1.10323,-1.15734 -15.52204,11.9442 -24.48703,22.24995 -7.03303,8.08485 -8.97785,9.76502 -8.97785,7.75617 0,-1.82711 20.3093,-23.28189 26.97866,-28.50031 8.77223,-6.8638 15.68031,-10.18759 24.28953,-11.68683 18.16372,-3.16307 33.90049,5.81466 36.73147,20.95507 1.42519,7.62206 -1.00156,26.52778 -6.5735,51.21113 -1.38021,6.11427 -2.35334,11.58527 -2.16251,12.15778 0.19084,0.5725 2.06177,-4.09626 4.15764,-10.37502 16.56269,-49.61835 45.30738,-78.87577 72.74594,-74.04353 17.35227,3.05594 25.31297,14.02611 25.12814,34.62759 -0.0644,7.17423 -1.92828,18.09342 -9.18806,53.82546 -5.00902,24.654 -9.10731,45.49446 -9.10731,46.31213 0,2.36912 8.21201,-3.94176 19.04712,-14.63759 5.29305,-5.225 10.36418,-10.64539 11.26919,-12.04531 l 1.64547,-2.5453 -0.9751,-5.9547 c -1.39167,-8.49859 -1.22027,-15.73863 0.62803,-26.52847 4.71058,-27.49916 21.5349,-49.89966 46.88529,-62.4248 33.7154,-16.65811 84.01901,-14.28413 105.29121,4.96902 6.68547,6.05092 10.57616,11.69979 13.96053,20.2692 l 2.66991,6.76036 0.0267,16 c 0.0316,18.92764 -1.06573,23.96689 -8.52112,39.13174 -3.91869,7.97092 -6.70161,11.97077 -13.0487,18.75468 -12.9698,13.86243 -27.00237,21.88232 -47.80477,27.32137 l -9.57377,2.50318 -18,0.4942 -18,0.49419 -9.71371,-2.01245 c -19.60972,-4.06267 -32.1646,-12.94408 -39.40213,-27.87335 -2.08336,-4.29746 -3.84784,-7.92683 -3.92107,-8.06526 -0.0732,-0.13844 -5.49489,5.06917 -12.04812,11.57247 -12.804,12.70642 -22.08193,19.41769 -32.41497,23.44764 -7.38983,2.88208 -12.81173,3.54952 -21.66244,2.66667 z m 144.30152,-4.47336 c 14.35305,-10.94761 27.39411,-58.54911 29.98848,-109.46172 0.73766,-14.47596 -0.54506,-22.7906 -4.28106,-27.75 l -2.44828,-3.25 h -4.47543 -4.47542 l -4.36322,4.36322 c -12.14,12.14 -23.32081,51.60597 -27.66074,97.63678 -2.13282,22.62133 0.2972,38.49058 6.2764,40.98812 3.26205,1.36257 7.59526,0.40557 11.43927,-2.5264 z m 142.79598,4.39971 c -16.41319,-1.15622 -30.46825,-6.24389 -38.01607,-13.76112 -6.22313,-6.19791 -7.89336,-10.44379 -7.90699,-20.10031 l -0.012,-8.5 2.74115,-4.66297 c 3.54389,-6.02851 8.23791,-8.88877 15.69757,-9.56519 l 5.8884,-0.53394 4.6763,2.26376 c 12.88772,6.23883 16.06127,24.98696 7.27845,42.99834 -1.74326,3.575 -3.19483,6.94237 -3.22572,7.48304 -0.16505,2.88943 25.40376,3.65933 33.80184,1.01781 11.82827,-3.72045 17.24989,-14.62331 12.16313,-24.46001 -1.9613,-3.79274 -12.64822,-13.4835 -22.58553,-20.48026 -30.2206,-21.27803 -39.26895,-32.35646 -39.25365,-48.06058 0.0245,-25.14534 18.1422,-42.1851 52.81806,-49.67556 8.9945,-1.94294 36.26025,-1.63577 44.89955,0.50582 16.3772,4.05973 27.8986,13.00776 31.1501,24.19254 5.24902,18.05599 -8.49901,34.11109 -25.20432,29.4339 -6.05612,-1.69561 -10.11437,-5.26525 -12.97846,-11.41583 -4.13335,-8.87632 -2.68636,-24.90759 3.19854,-35.43683 1.35508,-2.4245 2.30548,-4.56648 2.112,-4.75996 -0.19348,-0.19348 -3.01255,-0.8472 -6.2646,-1.45271 -12.24417,-2.27979 -26.73848,1.54413 -31.56954,8.32874 -1.34869,1.89406 -2.3714,5.10325 -2.63349,8.26373 -0.84506,10.19031 4.65726,16.35907 30.45429,34.14293 26.8852,18.53401 36.10273,29.87855 37.09374,45.65338 1.78284,28.37921 -24.8918,46.57449 -71.25781,48.60634 -7.7,0.33743 -18.07922,0.32615 -23.06494,-0.0251 z m 150.92102,-0.0223 c -23.5492,-1.92187 -37.80241,-8.87635 -43.95175,-21.44514 l -2.71756,-5.5545 -0.0155,-7.16974 c -0.0293,-13.57108 8.12975,-22.66975 20.32871,-22.66975 12.1985,0 20.9693,10.04517 20.9902,24.0399 0.012,8.16274 -2.2098,16.90045 -6.0146,23.65065 l -2.9256,5.19055 1.725,0.48479 c 8.5489,2.40259 24.6396,2.52763 32.4665,0.25229 12.4961,-3.63272 17.8185,-13.66567 12.7757,-24.08277 -3.0466,-6.29329 -5.6491,-8.54542 -32.9747,-28.53541 -11.9655,-8.75328 -21.8712,-18.8417 -25.7766,-26.25192 l -2.76588,-5.24808 v -10.05282 -10.05283 l 3.75258,-7.59183 c 10.697,-21.64128 41.1853,-34.47297 77.1618,-32.4753 30.1456,1.6739 48.5856,14.47385 48.5856,33.72519 0,20.79583 -22.5307,30.50589 -36.1828,15.59368 -7.5624,-8.26045 -7.4645,-26.74589 0.2137,-40.35366 l 2.9383,-5.20758 -3.7346,-0.77891 c -6.5582,-1.36782 -19.3938,-0.82636 -24.9221,1.05132 -9.6098,3.26401 -14.9787,12.1379 -12.4501,20.57784 2.5149,8.39378 9.4816,14.76432 35.1376,32.13049 11.8484,8.01999 24.8815,20.70787 28.3474,27.59663 7.4896,14.88566 3.8595,33.6728 -8.6855,44.95186 -15.1252,13.59887 -47.9191,20.94977 -81.3058,18.22505 z m 143.14392,0.0933 c -16.7388,-1.99397 -28.26342,-11.79198 -33.04712,-28.09606 -1.422,-4.84638 -1.8483,-9.51075 -1.8132,-19.83632 0.1165,-34.29291 11.5887,-63.46466 32.34502,-82.24807 12.3537,-11.17939 27.5089,-16.76339 45.4253,-16.73715 16.8442,0.0247 27.2045,3.42265 35.7698,11.73182 l 4.6797,4.53984 8.6347,-0.70062 c 4.7491,-0.38534 12.0932,-1.57033 16.3203,-2.63332 9.3041,-2.33974 24.159,-9.49755 29.8445,-14.38056 3.6394,-3.12574 6.341,-4.46863 6.341,-3.15194 0,0.231 -1.0958,5.5185 -2.4351,11.75 -6.9273,32.2314 -12.6007,62.27144 -17.9098,94.83 -5.2811,32.38722 -5.503,34 -4.6765,34 1.2618,0 14.4704,-11.44814 21.0776,-18.26829 4.2771,-4.41492 7.4112,-8.69005 8.5114,-11.60994 7.8503,-20.83577 32.5198,-31.21863 47.3375,-19.92333 6.4146,4.88978 9.4034,12.21757 9.2545,22.68991 -0.21,14.77466 -8.148,27.49321 -21.1596,33.90245 l -5.5,2.7092 h -7.5 c -8.4248,0 -13.0376,-1.73559 -17.9401,-6.74994 -4.4183,-4.51919 -6.4158,-9.46661 -6.8763,-17.0321 l -0.4129,-6.78204 -8.8427,8.5244 c -9.7472,9.3963 -20.9521,17.204 -29.7207,20.70976 l -5.7073,2.28179 -10.5718,0.0241 -10.5718,0.0241 -5.8949,-3.01532 c -7.0156,-3.58861 -10.8298,-8.973 -12.5944,-17.77932 l -1.1611,-5.79465 1.7225,-10.74324 c 0.9474,-5.90879 3.425,-18.06513 5.5058,-27.0141 2.0807,-8.94897 3.4585,-15.90692 3.0618,-15.46211 -0.3968,0.44481 -2.6311,6.87838 -4.9651,14.29684 -10.8051,34.34364 -23.662,54.19308 -40.1538,61.99248 -5.5469,2.62324 -8.2519,3.28627 -17.8772,4.38196 -1.375,0.15652 -5.2,-0.0371 -8.5,-0.43016 z m 42.7843,-21.10474 c 2.6313,-2.77294 5.7651,-6.90604 6.9638,-9.18467 4.7878,-9.10056 9.9006,-21.09466 13.7797,-32.32537 4.0979,-11.86424 16.9722,-62.1588 16.9722,-66.30345 0,-3.12466 -5.8357,-8.58504 -10.7481,-10.05683 -7.0016,-2.09772 -12.0269,1.11662 -19.3678,12.38813 -9.5805,14.71014 -20.7349,53.47663 -23.9325,83.17554 -1.7154,15.93264 0.1247,25.37546 5.3508,27.4579 3.4632,1.38002 5.8436,0.26346 10.9819,-5.15125 z M 658.67736,184.1479 c -12.50721,-3.77022 -17.31773,-19.96316 -9.14125,-30.77082 7.09781,-9.38188 22.90795,-10.4687 31.76553,-2.18363 l 4.08436,3.82037 -1.24805,1.2593 -1.24806,1.2593 -3.25194,-3.13672 c -4.0631,-3.91913 -7.57852,-5.27105 -13.56705,-5.21747 -15.35481,0.13737 -22.2285,17.55312 -11.10748,28.14284 6.87137,6.54309 17.73976,6.19806 24.72267,-0.78485 1.86995,-1.86995 3.77835,-3.39991 4.24089,-3.39991 4.03752,0 -1.41343,7.35577 -7.49961,10.12034 -4.23647,1.92436 -12.88263,2.35849 -17.75001,0.89125 z m 47.349,-8.26159 c 2.23763,-4.5375 6.26274,-12.8625 8.94469,-18.5 l 4.87627,-10.25 h 2.35191 2.35191 l 9.16743,17.88793 c 5.04209,9.83837 9.16743,18.16337 9.16743,18.5 0,0.33664 -0.7875,0.61077 -1.75,0.60918 -1.0683,-0.002 -2.72385,-1.85209 -4.25,-4.75 l -2.5,-4.74711 -11.73266,-0.28159 -11.73265,-0.28158 -2.76735,5.01718 c -1.63944,2.97229 -3.46594,5.02305 -4.48137,5.03158 l -1.71402,0.0144 z m 21.85964,-14.75 c -2.76003,-5.5 -5.23503,-10 -5.5,-10 -0.26497,0 -2.73997,4.5 -5.5,10 l -5.01823,10 h 10.51823 10.51823 z m 36,4 v -19 h 17.5 17.5 v 2 2 h -15.5 -15.5 v 6.5 6.5 h 14 14 v 1.5 1.5 h -14 -14 v 9 9 h -2 -2 z m 56,0.5 v -18.5 h 18 17.99998 v 1.5 1.5 h -15.99998 -16 v 6.5 6.5 h 15 14.99998 v 1.5 1.5 h -14.99998 -15 v 7.5 7.5 h 17 16.99998 v 1.5 1.5 h -18.99998 -19 z m 18.24081,-25.98762 c 1.76524,-2.72508 2.91511,-3.48123 5.25919,-3.45837 l 3,0.0292 -3.91661,3.45838 c -5.21418,4.60412 -7.33472,4.58984 -4.34258,-0.0292 z"
       id="path1" />
  </g>
</svg>
