<?xml version="1.0" encoding="UTF-8" standalone="no"?>
<!-- Created with Inkscape (http://www.inkscape.org/) -->

<svg
   version="1.1"
   id="svg1"
   width="1414.9938"
   height="234.98067"
   viewBox="0 0 1414.9938 234.98067"
   xmlns="http://www.w3.org/2000/svg"
   xmlns:svg="http://www.w3.org/2000/svg">
  <defs
     id="defs1" />
  <g
     id="g1"
     transform="translate(24.443602,297.73502)">
    <path
       style="fill:#000000"
       d="m 167.9277,-63.787954 c -17.26983,-3.40486 -28.13065,-15.48831 -30.217,-33.61858 -1.49053,-12.952706 0.40217,-24.748846 13.60973,-84.821586 l 12.53199,-57 -0.37408,-6.1934 c -0.40667,-6.733 -2.21121,-9.77231 -6.26189,-10.54665 -8.01947,-1.53302 -20.59105,13.30183 -33.97443,40.09088 -15.0771,30.17929 -25.62164,64.44698 -34.04796,110.64917 -2.50771,13.749996 -5.02849,27.362496 -5.60174,30.249996 l -1.04228,5.25 h -46.996485 -46.99649 l 0.530517,-1.75 c 0.291784,-0.9625 8.867076,-46.299996 19.056204,-100.749996 10.189128,-54.45 18.779099,-100.0715 19.088826,-101.3811 l 0.563139,-2.3811 -2.968891,1.8811 c -8.96976,5.68326 -33.2267612,29.62927 -45.970477,45.3811 -1.521428,1.88055 -2.310479,2.21729 -3.184512,1.35904 -2.29111,-2.24973 30.098078,-36.59226 45.013322,-47.728 13.500462,-10.07946 25.235157,-14.57911 40.02207,-15.34639 l 10.515423,-0.54564 8.375274,2.11793 c 13.67305,3.45762 22.41458,9.96742 27.59047,20.54657 4.18335,8.55045 5.07194,15.86709 3.65806,30.12048 -1.49332,15.05423 -5.96833,41.25502 -10.15831,59.47601 -4.07773,17.73283 -4.44969,20 -3.28132,20 0.53719,0 1.9826,-3.4875 3.21202,-7.75 3.8412,-13.3177 13.02039,-36.16984 20.3685,-50.70857 26.99173,-53.40493 62.88995,-79.75504 98.37274,-72.20781 18.49505,3.93392 29.59174,14.85619 33.94094,33.40744 1.22609,5.22981 1.47513,10.26561 1.10083,22.25894 l -0.48375,15.5 -13.96602,69.25 c -7.68131,38.0875 -13.60535,69.249996 -13.16454,69.249996 0.44081,0 5.2121,-3.5324 10.60287,-7.84978 10.4563,-8.3743 23.09972,-20.547356 32.67303,-31.457536 l 5.87165,-6.69159 -1.12165,-7.54139 c -2.65813,-17.872 -0.9166,-41.56852 4.40881,-59.98952 9.74023,-33.69219 35.03094,-63.67994 67.40868,-79.92795 24.81521,-12.45292 55.5514,-18.46461 88.06087,-17.2238 38.39084,1.46529 63.33531,10.56579 81.29764,29.65986 8.94495,9.50854 15.48986,21.81938 18.8847,35.52171 l 2.2298,9 0.0439,17.5 c 0.0606,24.14676 -3.15773,38.56208 -13.13571,58.83619 -20.29232,41.231676 -60.79492,68.028266 -114.32116,75.635086 -14.19954,2.01795 -45.06888,1.99996 -58.76856,-0.0343 -36.43107,-5.40949 -61.60919,-23.62534 -71.78788,-51.937026 -0.98869,-2.75 -1.89374,-5.13847 -2.01123,-5.30771 -0.11749,-0.16925 -8.25015,7.7294 -18.07258,17.55253 -18.45564,18.456986 -28.48249,26.296976 -42.85895,33.511416 -12.16903,6.1067 -19.16873,7.75827 -32.35534,7.63419 -6.40456,-0.0603 -13.56352,-0.48788 -15.9088,-0.95026 z m 223.14812,-2.13891 c 9.92936,-2.8918 21.2554,-19.28883 29.79265,-43.131646 16.86273,-47.09422 28.72238,-138.41065 21.25648,-163.66961 -3.52197,-11.91565 -11.79063,-17.47597 -20.86034,-14.02767 -4.23891,1.61163 -11.34466,8.88918 -16.03539,16.42309 -16.6768,26.78507 -31.86237,91.35112 -35.67862,151.69844 -1.85827,29.385376 1.10019,46.280586 9.03912,51.620596 3.83657,2.58061 6.54689,2.81652 12.4861,1.0868 z m 215.21551,1.67671 c -32.30586,-5.22396 -51.71661,-17.88396 -57.71889,-37.645176 -2.93518,-9.66342 -2.39409,-22.93505 1.25706,-30.83279 3.41892,-7.39542 6.66716,-11.0217 13.02962,-14.54605 l 5.33272,-2.95395 h 9.5 9.5 l 4.91538,2.41926 c 6.37256,3.13647 11.84109,8.84372 15.25411,15.92001 l 2.73027,5.66073 0.39966,10.5 c 0.5996,15.752816 -3.82763,31.683826 -12.03517,43.307576 -1.09034,1.54416 -1.79894,2.99106 -1.57468,3.21533 1.37797,1.37796 21.14099,3.75522 31.31043,3.76628 24.2477,0.0264 38.85998,-7.40003 43.07255,-21.89075 4.24548,-14.603926 -3.51896,-26.203676 -30.69107,-45.851196 -38.03938,-27.50539 -49.08584,-37.0886 -57.8419,-50.18 -7.18662,-10.74488 -8.55162,-15.55414 -8.47714,-29.86724 l 0.0624,-12 2.76267,-8 c 1.51947,-4.4 3.70068,-9.575 4.84713,-11.5 12.67837,-21.2882 36.23899,-35.71556 70.26532,-43.02701 12.83026,-2.75692 45.5619,-3.8415 60.22658,-1.99565 40.0151,5.03673 64.45134,26.57026 61.86736,54.51835 -1.18911,12.86126 -7.48671,22.77867 -17.96574,28.2923 l -5.1282,2.69825 -8.5,-0.0399 -8.5,-0.0399 -5.68187,-2.74359 c -14.40115,-6.95381 -21.0475,-24.12536 -17.56037,-45.36905 1.87676,-11.43329 4.34095,-18.58433 9.16402,-26.59384 1.88105,-3.12378 3.11817,-5.84695 2.74915,-6.05149 -3.88568,-2.1538 -21.1337,-3.68248 -29.92093,-2.65188 -15.62252,1.83229 -25.27844,6.70398 -30.75,15.51426 l -3,4.83059 v 7.57925 7.57931 l 2.5,4.92487 c 4.85097,9.55616 14.96446,18.38379 43,37.53285 21.69966,14.82149 30.90315,22.1026 40.0329,31.67103 13.80674,14.47015 19.19265,26.32389 19.25197,42.37125 0.0653,17.66304 -4.91902,29.77481 -17.28412,41.999996 -4.17221,4.125 -10.12335,8.99873 -13.22475,10.83052 -13.36152,7.89174 -30.77587,13.77791 -51.276,17.33164 l -12,2.08023 -27.5,0.33741 c -20.52044,0.25177 -29.75897,-0.0279 -36.40051,-1.10183 z m 239.40051,0.8827 c -1.375,-0.20184 -5.875,-0.86256 -10,-1.46828 -4.125,-0.60571 -11.1,-2.2249 -15.5,-3.5982 -28.31623,-8.83786 -43.14505,-27.09884 -41.16879,-50.697396 0.88147,-10.52559 3.32156,-16.24804 9.67373,-22.68667 7.11189,-7.20869 12.96869,-9.34228 23.90674,-8.70909 12.31622,0.71297 20.79579,6.36795 26.53676,17.69723 7.88404,15.5584 4.29741,41.414476 -8.42265,60.718866 l -2.05393,3.11712 5.76407,1.13332 c 29.7167,5.84284 56.00895,1.43679 65.14214,-10.91652 5.41221,-7.32041 6.61988,-17.7861 2.95265,-25.587786 -4.50948,-9.59351 -11.85947,-15.95859 -52.95994,-45.86326 -15.01467,-10.92466 -30.94749,-26.57425 -36.15159,-35.50891 -5.50486,-9.45105 -7.17866,-15.81898 -7.09456,-26.99109 0.14193,-18.8551 5.90127,-32.6108 19.28688,-46.0651 16.11554,-16.19823 37.81778,-25.84292 68.35374,-30.37708 12.26325,-1.82091 41.32243,-2.08778 52.0432,-0.47793 40.31525,6.0538 61.98501,25.15528 60.49901,53.32874 -0.7271,13.78423 -6.88976,24.02909 -17.62586,29.30128 l -5.6816,2.79009 -8,-0.0351 -8,-0.0351 -5.50609,-2.54795 c -7.20465,-3.33389 -11.62481,-7.8874 -15.41032,-15.87518 l -3.08359,-6.50667 v -13.5 -13.5 l 2.85711,-8.71622 c 1.57141,-4.79391 4.34854,-11.08162 6.1714,-13.97267 1.82286,-2.89105 3.13024,-5.55424 2.9053,-5.91821 -0.81532,-1.31922 -14.13142,-3.21965 -22.43381,-3.20169 -21.96243,0.0475 -36.4935,7.87893 -40.55734,21.85804 -1.87995,6.46678 -1.44116,11.40505 1.63036,18.34873 2.88578,6.52377 17.27735,20.14232 31.81794,30.10888 46.71944,32.02292 57.11974,41.43524 65.73794,59.49314 11.53986,24.17986 3.9082,53.45266 -18.2875,70.145196 -23.26686,17.4982 -55.92322,25.50847 -102.81154,25.21862 -12.11642,-0.0749 -23.15486,-0.30132 -24.52986,-0.50315 z m 218.00006,-0.93675 c -8.7619,-2.30111 -19.5364,-8.09989 -25.7543,-13.86082 -15.564,-14.42002 -21.8732,-37.402866 -19.3749,-70.578036 3.4058,-45.22701 18.3975,-82.74204 43.4245,-108.66472 23.6515,-24.49789 51.2447,-34.7901 86.3339,-32.20232 21.3042,1.57115 36.0342,7.42855 47.0767,18.72008 l 6.2058,6.34584 12.1813,-1.1116 c 28.6511,-2.61454 50.9205,-10.44817 69.3237,-24.38572 8.9442,-6.77387 11.3391,-8.26419 12.0837,-7.51958 0.3376,0.33758 -1.8667,12.02559 -4.8984,25.97337 -9.3451,42.99385 -20.4309,103.19585 -29.0688,157.85959 -2.4769,15.674996 -4.7239,29.737496 -4.9933,31.249996 -0.2695,1.5125 -0.074,2.75 0.4337,2.75 2.1564,0 21.4056,-16.59626 32.0264,-27.612536 9.0528,-9.38984 11.8656,-12.98789 13.2179,-16.90784 5.898,-17.09653 21.3016,-32.47103 37.5653,-37.49438 8.7265,-2.69534 20.3207,-2.66659 27.6309,0.0685 7.9162,2.96183 14.8069,9.59109 19.1921,18.46397 l 3.638,7.36094 0.5088,8.92355 c 1.9825,34.770466 -24.3059,63.679246 -56.3765,61.995976 l -8.1856,-0.42964 -6.4878,-3.19396 c -7.8132,-3.84641 -12.8895,-9.2115 -16.9737,-17.93915 l -3.047,-6.51132 -0.4749,-9.861576 -0.4748,-9.86159 -13.6369,13.249526 c -30.4951,29.62909 -54.4449,40.05095 -82.1385,35.74288 -15.3391,-2.38619 -25.7785,-9.55286 -30.9521,-21.24873 -3.2745,-7.40245 -4.5207,-19.187346 -3.1174,-29.479536 1.621,-11.88946 7.4879,-40.7623 11.6766,-57.46422 1.8896,-7.53452 3.4356,-14.48702 3.4356,-15.45 0,-3.2043 -1.6662,0.0132 -3.4433,6.64913 -3.2471,12.12471 -10.6577,33.98366 -15.6854,46.26675 -16.8664,41.206116 -36.6419,62.897016 -63.6377,69.801386 -9.2738,2.37182 -28.8451,2.55883 -37.2336,0.35578 z m 70.3998,-25.91526 c 14.2067,-10.835996 31.6868,-49.115576 46.0782,-100.906186 4.0073,-14.42127 17.522,-70.31098 17.522,-72.4619 0,-2.12431 -8.5119,-10.21676 -13.2075,-12.55668 -10.0413,-5.00382 -17.7025,-2.91807 -26.9937,7.34901 -18.747,20.7161 -39.5387,87.89078 -44.7557,144.59847 -1.6963,18.43858 0.9011,31.426856 7.1935,35.970996 3.237,2.33763 9.6721,1.43178 14.1632,-1.99371 z"
       id="path1" />
  </g>
</svg>
