<?xml version="1.0" encoding="UTF-8" standalone="no"?>
<!-- Created with Inkscape (http://www.inkscape.org/) -->

<svg
   version="1.1"
   id="svg1"
   width="621.7702"
   height="364.69775"
   viewBox="0 0 621.7702 364.69775"
   xmlns="http://www.w3.org/2000/svg"
   xmlns:svg="http://www.w3.org/2000/svg">
  <defs
     id="defs1" />
  <g
     id="g1"
     transform="translate(-303.48691,-240.2708)">
    <path
       style="fill:#000000"
       d="m 624.07608,604.24157 c -11.57939,-1.32821 -20.34363,-3.73456 -29.2539,-8.0321 -16.77106,-8.08889 -25.80562,-20.19922 -30.10638,-40.35593 -2.01806,-9.45818 -1.9667,-31.15857 0.10673,-45.09579 0.90006,-6.05 9.97279,-49.7 20.16164,-97 l 18.52517,-86 0.48122,-10 0.48122,-10 -2.3248,-4.4966 c -2.67645,-5.17675 -5.61719,-6.96785 -11.47439,-6.98866 -18.69945,-0.0664 -53.9285,59.92759 -77.90102,132.66313 -11.82394,35.87527 -18.28429,63.86857 -29.06512,125.94184 l -6.79427,39.11971 -74.545,0.48022 c -40.99975,0.26412 -74.73218,0.32308 -74.96094,0.13101 -0.22877,-0.19206 0.29796,-4.28703 1.17053,-9.09993 0.87256,-4.8129 7.71809,-42.27572 15.21228,-83.25072 7.4942,-40.975 18.35812,-100.375 24.14205,-132 5.78393,-31.625 12.43597,-67.9625 14.78232,-80.75 2.34635,-12.7875 3.92088,-23.25 3.49897,-23.25 -0.42192,0 -4.46954,2.78986 -8.99473,6.19969 -11.90642,8.97176 -36.72103,33.51505 -54.59941,54.00244 l -15.49831,17.76 -1.95965,-1.04877 c -1.0778,-0.57682 -1.8198,-1.42756 -1.64888,-1.89054 0.17093,-0.46297 5.26077,-6.61091 11.31077,-13.66209 40.34144,-47.0173 70.05851,-71.85816 96.8899,-80.99146 21.074,-7.1735 48.46803,-7.21314 67.85165,-0.0982 24.10505,8.848 38.81288,27.88112 41.66997,53.92431 2.00281,18.25606 -6.06569,73.75558 -19.06728,131.15507 -2.82796,12.48491 -3.7272,18.16658 -2.99165,18.90213 1.31455,1.31455 1.79033,0.16759 7.15657,-17.25259 16.35005,-53.07633 39.98459,-100.6346 66.5926,-134 14.66922,-18.39462 35.22496,-36.41739 52.17867,-45.74897 17.2089,-9.47204 31.09102,-13.25838 48.53495,-13.23789 35.91462,0.0422 60.42837,15.67121 70.87274,45.18576 4.1773,11.80468 5.8144,23.01777 5.7936,39.68209 -0.023,18.34961 -1.1247,26.01322 -10.9366,76.07804 -4.37003,22.29753 -13.81788,70.50254 -20.99529,107.12223 -7.17741,36.61971 -13.04983,67.1214 -13.04983,67.78156 0,3.21103 29.12739,-20.90056 47.50232,-39.32229 20.0496,-20.10074 29.3013,-31.23481 34.3248,-41.3087 5.9167,-11.86502 11.4546,-19.66551 20.0969,-28.30782 17.1636,-17.16362 36.8039,-25.97741 58.076,-26.06225 11.2237,-0.0448 17.0226,1.20349 26.5,5.70425 25.0746,11.9078 37.8863,42.12616 32.0322,75.55301 -6.0389,34.48218 -28.7089,62.61184 -58.8029,72.96449 -39.4657,13.57659 -75.2745,-3.61564 -84.7573,-40.69298 -2.1988,-8.597 -2.6897,-27.56559 -0.9129,-35.2725 0.5557,-2.41008 0.8424,-4.54985 0.6372,-4.75502 -0.2052,-0.20518 -2.732,2.44171 -5.6152,5.88197 -8.3146,9.92114 -28.6254,30.20837 -40.18878,40.14223 -39.87046,34.25178 -73.96165,47.74626 -110.13844,43.59662 z"
       id="path1" />
  </g>
</svg>
